# xmcd
#
# Track frame offsets: 
#        150
#        18323
#        37434
#        70574
#        89572
#        110132
#        126855
#        151084
#        200313
#        218660
#        244062
#
# Disc length: 3562 seconds
#
# Revision: 0
# Processed by: cddbd v1.5.2PL0 Copyright (c) Steve Scherf et al.
# Submitted via: ExactAudioCopyFreeDBPlugin 1.0
#
DISCID=970de80b
DTITLE=Johnny Neel - Every Kinda' Blues
DYEAR=2012
DGENRE=Blues
TTITLE0=Every Kinda' Blues
TTITLE1=Right Out the Window
TTITLE2=Won't Lay Me Down
TTITLE3=I'm Gonna Love You
TTITLE4=Sunday Morning Rain
TTITLE5=Johnny Needs a Shot
TTITLE6=How to Play the Blues
TTITLE7=Murdered By Love
TTITLE8=Mighty Mississippi
TTITLE9=I Wanna Know the Way
TTITLE10=My Kinda' People
EXTD=
EXTT0=
EXTT1=
EXTT2=
EXTT3=
EXTT4=
EXTT5=
EXTT6=
EXTT7=
EXTT8=
EXTT9=
EXTT10=
PLAYORDER=
